<svg width="16" height="20" viewBox="0 0 16 20" fill="none" xmlns="http://www.w3.org/2000/svg">
<path d="M9 1.78027C9 1.22799 8.55228 0.780273 8 0.780273C7.44772 0.780273 7 1.22799 7 1.78027L9 1.78027ZM7.29289 19.109C7.68342 19.4996 8.31658 19.4996 8.70711 19.109L15.0711 12.7451C15.4616 12.3546 15.4616 11.7214 15.0711 11.3309C14.6805 10.9403 14.0474 10.9403 13.6569 11.3309L8 16.9877L2.34315 11.3309C1.95262 10.9403 1.31946 10.9403 0.928932 11.3309C0.538408 11.7214 0.538408 12.3546 0.928932 12.7451L7.29289 19.109ZM7 1.78027L7 18.4019H9L9 1.78027L7 1.78027Z" fill="#BCA6EA"/>
</svg>
