<svg width="30" height="30" viewBox="0 0 30 30" fill="none" xmlns="http://www.w3.org/2000/svg">
<g clip-path="url(#clip0)">
<path d="M29.9706 21.1799C29.9003 22.7739 29.6426 23.8698 29.2733 24.8194C28.8924 25.8274 28.3063 26.7298 27.5385 27.48C26.7883 28.2418 25.8799 28.8338 24.8836 29.2088C23.9286 29.5781 22.8384 29.8359 21.2444 29.9061C19.6385 29.9824 19.1287 30 15.0556 30C10.9825 30 10.4727 29.9824 8.87275 29.9121C7.27874 29.8418 6.18287 29.5838 5.23351 29.2148C4.22532 28.8338 3.32289 28.2478 2.5727 27.48C1.81083 26.7298 1.21905 25.8214 0.843843 24.8251C0.474585 23.8698 0.216814 22.7799 0.146533 21.1859C0.0703007 19.5799 0.0526733 19.0701 0.0526733 14.9971C0.0526733 10.924 0.0703007 10.4142 0.140581 8.81422C0.210862 7.2202 0.468862 6.12433 0.83812 5.17475C1.21905 4.16678 1.81083 3.26435 2.5727 2.51416C3.32289 1.75229 4.23127 1.16029 5.22756 0.785307C6.18287 0.416048 7.27278 0.158278 8.86703 0.0879974C10.4668 0.0174866 10.9768 8.96454e-05 15.0499 8.96454e-05C19.1229 8.96454e-05 19.6328 0.0174866 21.2327 0.0879974C22.8267 0.158278 23.9226 0.416048 24.872 0.785307C26.8881 1.5648 28.4821 3.15882 29.2616 5.17475C29.6307 6.13006 29.8887 7.2202 29.9589 8.81422C30.0292 10.4142 30.0468 10.924 30.0468 14.9971C30.0468 19.0701 30.0409 19.5799 29.9706 21.1799ZM27.2691 8.93143C27.2045 7.4663 26.9584 6.67513 26.7533 6.14768C26.2492 4.84074 25.2119 3.80347 23.905 3.29938C23.3775 3.09426 22.5806 2.84816 21.1212 2.78384C19.5389 2.71333 19.0643 2.69593 15.0615 2.69593C11.0588 2.69593 10.5783 2.71333 9.00164 2.78384C7.53651 2.84816 6.74534 3.09426 6.21789 3.29938C5.56751 3.53975 4.97551 3.92068 4.49499 4.41883C3.99685 4.9053 3.61591 5.49135 3.37554 6.14173C3.17042 6.66918 2.92433 7.4663 2.86 8.92548C2.78949 10.5078 2.77209 10.9826 2.77209 14.9854C2.77209 18.9882 2.78949 19.4687 2.86 21.0451C2.92433 22.5102 3.17042 23.3014 3.37554 23.8288C3.61591 24.4794 3.99685 25.0712 4.50094 25.552C4.98718 26.0501 5.57323 26.431 6.22384 26.6712C6.75129 26.8763 7.54841 27.1224 9.00759 27.187C10.5899 27.2572 11.0647 27.2749 15.0673 27.2749C19.076 27.2749 19.5506 27.2572 21.1272 27.187C22.5923 27.1224 23.3835 26.8763 23.9109 26.6712C24.5613 26.431 25.1533 26.0501 25.6338 25.552C26.132 25.0655 26.5129 24.4794 26.7533 23.8288C26.9584 23.3014 27.2045 22.5045 27.2691 21.0451C27.3393 19.4627 27.357 18.9882 27.357 14.9854C27.357 10.9826 27.3393 10.5138 27.2691 8.93143Z" fill="white"/>
<path d="M15.0556 22.7037C10.801 22.7037 7.34906 19.2519 7.34906 14.9971C7.34906 10.7422 10.801 7.29049 15.0556 7.29049C19.3105 7.29049 22.7622 10.7422 22.7622 14.9971C22.7622 19.2519 19.3105 22.7037 15.0556 22.7037ZM15.0556 9.99801C12.2955 9.99801 10.0566 12.2367 10.0566 14.9971C10.0566 17.7575 12.2955 19.9961 15.0556 19.9961C17.816 19.9961 20.0547 17.7575 20.0547 14.9971C20.0547 12.2367 17.816 9.99801 15.0556 9.99801Z" fill="white"/>
<path d="M24.8663 23.0084C24.8663 22.0148 24.0607 21.2092 23.0669 21.2092C22.0734 21.2092 21.2678 22.0148 21.2678 23.0084C21.2678 24.0021 22.0734 24.8075 23.0669 24.8075C24.0607 24.8075 24.8663 24.0021 24.8663 23.0084Z" fill="white"/>
</g>
<defs>
<clipPath id="clip0">
<rect width="30" height="30" fill="white" transform="matrix(1 0 0 -1 0 30)"/>
</clipPath>
</defs>
</svg>
