<svg width="30" height="30" viewBox="0 0 30 30" fill="none" xmlns="http://www.w3.org/2000/svg">
<g clip-path="url(#clip0)">
<path d="M29.3819 7.7985C29.0361 6.51333 28.0228 5.5003 26.7379 5.15423C24.3902 4.51176 14.9997 4.51176 14.9997 4.51176C14.9997 4.51176 5.60941 4.51176 3.26178 5.12974C2.00156 5.47558 0.963588 6.51356 0.61775 7.7985C0 10.1459 0 15.0142 0 15.0142C0 15.0142 0 19.907 0.61775 22.2299C0.963817 23.5148 1.97684 24.5281 3.26201 24.8742C5.63413 25.5166 14.9999 25.5166 14.9999 25.5166C14.9999 25.5166 24.3902 25.5166 26.7379 24.8987C28.023 24.5528 29.0361 23.5396 29.3821 22.2546C29.9999 19.907 29.9999 15.0389 29.9999 15.0389C29.9999 15.0389 30.0246 10.1459 29.3819 7.7985Z" fill="white"/>
<path d="M12.0098 19.5117L19.8186 15.0142L12.0098 10.5167V19.5117Z" fill="#310F3D"/>
</g>
<defs>
<clipPath id="clip0">
<rect width="30" height="30" fill="white"/>
</clipPath>
</defs>
</svg>
